<?xml version="1.0" encoding="utf-8"?>
<!-- Generator: Adobe Illustrator 24.3.0, SVG Export Plug-In . SVG Version: 6.00 Build 0)  -->
<svg version="1.1" id="Layer_1" xmlns="http://www.w3.org/2000/svg" xmlns:xlink="http://www.w3.org/1999/xlink" x="0px" y="0px"
	 viewBox="0 0 200 200" enable-background="new 0 0 200 200" xml:space="preserve">
<path fill="#282828" d="M122.382,141.448h-16.4c-4.4,0-10.4-2.2-13.5-5l-0.9-0.9c-3.3-3-5.6-8.8-5.6-13.2v-21
	c0-4.4,1.7-10.5,4.1-13.9l16.3-23.5c2.7-3.9,7.3-6,10.5-4.6c3.2,1.3,4.9,6,4,10.6c-0.8,4-2.8,9.1-4.5,11.5c-1.3,1.8-2.5,5.8-2.5,8.3
	c0,1.8,2.2,3.8,5,3.8h16.6c2.7,0,4.9,1,6.2,2.7c1.2,1.6,1.5,3.7,0.8,6l-9.3,31.4C131.982,137.948,127.182,141.448,122.382,141.448z
	 M114.582,62.848c-1.4,0-3.6,1.2-5.1,3.4l-16.2,23.5c-1.9,2.8-3.3,8.1-3.3,11.6v21c0,3.4,1.8,8.1,4.2,10.2l1,0.8
	c2.5,2.3,7.3,4.1,10.8,4.1h16.4c3,0,6.2-2.3,7-5.1l9.3-31.4c0.2-0.7,0.3-1.7-0.2-2.5c-0.5-0.7-1.6-1.1-3-1.1h-16.6
	c-4.8,0-9-3.6-9-7.8c0-3.4,1.4-8.2,3.2-10.7c1.4-1.9,3.1-6.5,3.8-9.9c0.6-3.1-0.6-5.7-1.7-6.2
	C115.082,62.848,114.882,62.848,114.582,62.848z"/>
<path fill="#282828" d="M83.682,129.648h-20.4c-3.2,0-5.8-2.6-5.8-5.8v-23.9c0-3.2,2.6-5.8,5.8-5.8h20.4c3.2,0,5.8,2.6,5.8,5.8v23.9
	C89.482,127.048,86.882,129.648,83.682,129.648z M63.282,98.048c-1,0-1.8,0.8-1.8,1.8v23.9c0,1,0.8,1.8,1.8,1.8h20.4
	c1,0,1.8-0.8,1.8-1.8v-23.8c0-1-0.8-1.8-1.8-1.8h-20.4V98.048z"/>
</svg>
